<svg width="214" height="214" viewBox="0 0 214 214" xmlns="http://www.w3.org/2000/svg">
<path d="M142.49 0L96.3882 46.0986L106.312 56.0229L46.0962 88.0071L0.266724 214L125.723 167.635L158.137 107.845L167.631 117.343L213.733 71.244L142.49 0ZM111.208 150.885L51.9695 172.779L74.0081 150.74C77.2737 152.371 80.8356 153.203 84.4068 153.203C90.3691 153.203 96.3285 150.927 100.881 146.384C109.963 137.289 109.969 122.546 100.884 113.451C96.3322 108.906 90.3728 106.63 84.413 106.63C78.4507 106.63 72.4938 108.906 67.9484 113.455C60.7 120.703 59.245 131.531 63.5564 140.241L40.9514 162.846L62.8688 102.591L117.583 73.5286L140.644 96.593L111.208 150.885ZM78.4298 123.924C80.0244 122.327 82.1493 121.447 84.4097 121.447C86.6734 121.447 88.7984 122.327 90.3988 123.924C93.6974 127.228 93.6974 132.607 90.4046 135.902C88.8042 137.503 86.6709 138.385 84.4068 138.385C82.1456 138.385 80.0239 137.505 78.4298 135.913C75.1224 132.607 75.1224 127.231 78.4298 123.924Z"/>
</svg>
