<svg width="212" height="212" viewBox="0 0 212 212" xmlns="http://www.w3.org/2000/svg">
<path d="M187.137 132.307L212 105.935L187.105 79.5954L191.714 43.648L156.091 36.9657L138.685 5.18115L105.943 20.7042L73.1849 5.22172L55.8239 37.0225L20.2052 43.7535L24.8588 79.6968L0 106.061L24.8913 132.405L20.2741 168.352L55.9009 175.034L73.3025 206.819L106.045 191.292L138.807 206.778L156.172 174.969L191.787 168.242L191.308 164.563L187.137 132.307ZM106 175.505C67.6061 175.505 36.4951 144.386 36.4951 106C36.4951 67.6143 67.6061 36.4951 106 36.4951C144.398 36.4951 175.505 67.6143 175.505 106C175.505 144.386 144.394 175.505 106 175.505Z"/>
<path d="M106 49.6081C74.9094 49.6081 49.6083 74.9051 49.6083 106C49.6083 137.095 74.9094 162.392 106 162.392C137.091 162.392 162.392 137.099 162.392 106C162.392 74.9011 137.091 49.6081 106 49.6081ZM104.872 132.125L78.922 110.483L73.891 106.284L82.2855 96.2139L103.071 113.542L132.583 77.2624L142.759 85.5351L104.872 132.125Z"/>
</svg>
